<?xml version="1.0"?>
<svg width="640" height="480" xmlns="http://www.w3.org/2000/svg" xmlns:svg="http://www.w3.org/2000/svg">
 <!-- Created with SVG-edit - http://svg-edit.googlecode.com/ -->
 <g>
  <title>Layer 1</title>
  <path d="m133,97c-2.642502,-1.764 -3.305649,-2.352943 -3.979172,-3c-0.663116,-0.637054 -1.515198,-1.505714 -1.966164,-1.944c-0.65065,-0.632355 -1.39888,-1.121323 -2.054665,-1.576836c-0.865906,-0.601463 -1.277504,-1.389214 -1.884003,-1.909828c-0.67952,-0.583298 -1.755096,-0.443336 -2.46933,-1.005333c-0.745461,-0.586571 -1.086288,-1.466118 -1.750832,-1.564003c-0.75106,-0.110634 -1.76046,-0.218567 -2.558334,-0.352669c-0.858841,-0.144348 -1.733086,-0.320976 -3.004166,-0.480667c-0.775482,-0.097427 -1.578545,-0.134743 -2.020836,-0.145828c-1.032135,-0.025864 -1.648499,-0.020164 -3.145836,-0.020836c-0.901665,-0.000404 -1.893333,0 -2.954994,0c-1.111671,0 -2.253334,0 -3.405006,0c-1.141663,0 -2.253326,0 -4.306664,0c-0.908165,0 -1.745331,0 -2.530502,0c-0.752167,0 -1.490334,0 -2.233498,0c-0.767166,0 -1.577332,0 -3.402664,0c-1.047668,0 -2.181335,0 -3.387001,0c-1.263672,0 -2.571335,0 -3.909004,0c-1.353661,0 -2.709328,-0.000351 -5.370667,0c-1.278831,0.000168 -2.510689,-0.000664 -3.688499,0.009003c-1.116859,0.009171 -2.165947,0.024727 -3.139496,0.062996c-0.892151,0.035065 -1.70388,0.036598 -3.005333,0.261337c-0.501511,0.086601 -0.911552,0.212936 -1.204506,0.398994c-0.249634,0.158546 -0.423141,0.38308 -0.511497,0.633003c-0.093544,0.264603 -0.110001,0.578552 -0.117332,1.301331c-0.004265,0.420311 0,0.882668 0,1.389c0,0.552338 0,1.152672 0,1.803001c0,0.702332 -0.000305,1.458672 0,3.141335c0.000168,0.928169 -0.000168,1.905357 0.009003,2.920502c0.009415,1.042198 0.02655,2.100525 0.062996,3.163498c0.036255,1.057396 0.062378,2.100647 0.261337,4.082664c0.093193,0.928368 0.227928,1.814522 0.394501,2.665504c0.163078,0.833168 0.364944,1.650238 0.601494,2.458496c0.239677,0.818947 0.509659,1.651421 1.17067,3.375999c0.353683,0.92276 0.749878,1.870796 1.162498,2.844002c0.420654,0.992165 0.85685,1.98999 1.297501,2.987999c0.437698,0.991325 0.875175,1.964516 1.706665,3.834671c0.390862,0.879112 0.759247,1.716331 1.110001,2.5065c0.329292,0.741814 0.637054,1.432358 0.93,2.065498c0.267319,0.577751 0.496307,1.104904 0.959999,1.927994c0.181389,0.321976 0.356819,0.579086 0.523506,0.779999c0.142532,0.171799 0.286873,0.305847 0.4245,0.420013c0.131516,0.1091 0.279312,0.201187 0.551994,0.46666c0.162209,0.157913 0.324547,0.356125 0.499504,0.580505c0.403831,0.517899 0.845901,1.152344 1.667168,2.252823c0.306648,0.410904 0.966072,1.26413 1.306664,1.695999c0.670525,0.850235 0.98587,1.260635 1.860001,2.304001c0.646973,0.772232 1.058922,1.211823 1.529503,1.691666c0.963226,0.982193 1.398491,1.403 1.874496,1.879013c0.511993,0.511993 1.048004,1.047989 1.596001,1.595993c1.084,1.084 1.596001,1.595993 2.5,2.5c0.688004,0.688004 1.179474,1.188568 1.792,1.792007c0.70285,0.692429 1.671486,1.027527 2.127998,1.779999c0.372299,0.613663 0.725433,1.614868 1.218666,2.112c0.560844,0.565277 1.233818,1.08844 1.896004,1.631989c0.927391,0.761246 1.515556,1.279785 2.236168,1.892334c0.446022,0.379135 0.975014,0.819275 1.606499,1.32901c1.615929,1.304382 2.641548,2.098984 3.783997,2.986664c1.231796,0.957108 2.528412,1.955872 3.859505,2.975998c1.334244,1.022537 2.644814,2.022659 3.904495,2.975998c2.238647,1.694229 3.172615,2.389313 3.981339,2.986664c0.696449,0.51442 1.299149,0.953186 1.822495,1.32901c0.456772,0.328018 0.865227,0.615677 1.237503,0.878998c0.700417,0.495407 1.056374,0.74968 1.421333,1.018661c0.379425,0.279633 0.771271,0.576202 1.1745,0.893997c0.422211,0.332764 0.860207,0.68811 1.309502,1.074005c0.969788,0.832916 1.473938,1.304031 1.99733,1.800003c0.543747,0.515259 1.095673,1.057709 1.651505,1.625992c0.568275,0.581009 1.137978,1.18103 1.696495,1.806c1.130264,1.26474 1.665482,1.928116 2.194672,2.593338c0.526489,0.661819 1.034363,1.329269 1.525497,1.996506c0.483475,0.65683 0.94783,1.308105 1.390503,1.951492c0.846664,1.230545 1.230743,1.826035 1.605331,2.402664c0.367065,0.565048 0.726044,1.127075 1.087494,1.6875c0.365219,0.566254 0.738083,1.144058 1.132507,1.732498c0.839066,1.251801 1.310318,1.911423 1.79866,2.602676c0.505646,0.715744 1.027481,1.4496 1.548004,2.206497c0.527527,0.76709 1.054535,1.543121 1.548004,2.341507c0.977051,1.58078 1.396896,2.390427 1.793335,3.190659c0.387741,0.782669 0.736526,1.559631 1.054489,2.322006c0.307159,0.736465 0.583084,1.452225 0.829498,2.141998c0.453796,1.270279 0.635117,1.854584 0.804001,2.402664c0.159607,0.518005 0.302155,1.015076 0.429001,1.496994c0.123749,0.470123 0.236557,0.937134 0.339005,1.406998c0.210693,0.966293 0.304688,1.477097 0.401337,2.004013c0.099075,0.540085 0.195007,1.091309 0.280502,1.651489c0.17244,1.129715 0.253403,1.694748 0.354156,2.8125c0.097336,1.079926 0.127563,2.130661 0.125,2.645844c-0.005066,1.01651 -0.014862,1.522522 -0.179993,3.020493c-0.054993,0.498871 -0.206741,1.483032 -0.425003,2.428329c-0.106171,0.459808 -0.493713,1.750198 -0.837326,2.498672c-0.317444,0.691483 -0.830551,1.574463 -1.494675,2.430496c-0.497482,0.641251 -1.200775,1.29718 -1.835999,1.96817c-0.485443,0.512772 -1.013367,1.491608 -1.462173,1.927338c-0.721878,0.700821 -1.489288,0.903717 -2.243988,1.24733c-0.771286,0.351151 -1.815506,0.82782 -2.577499,1.24733c-0.677719,0.373123 -1.899292,0.926102 -2.330338,1.073837c-1.000076,0.342758 -1.564011,0.500793 -2.154663,0.658005c-1.225403,0.326157 -1.848404,0.482803 -3.083344,0.6875c-1.159485,0.192184 -1.722923,0.227219 -2.271996,0.261322c-1.075119,0.066788 -1.609482,0.067505 -3.227997,0.072006c-0.555168,0.001541 -1.699501,0 -2.290672,0c-0.605164,0 -1.861496,0 -2.514664,0c-1.361336,0 -2.072845,0.002274 -2.813332,-0.003998c-0.778534,-0.006592 -1.604225,-0.022079 -2.485504,-0.058502c-0.946777,-0.039139 -1.967949,-0.097321 -3.070496,-0.193497c-2.494446,-0.217606 -3.896935,-0.401749 -5.403999,-0.602676c-1.607033,-0.214264 -3.304924,-0.464737 -5.088005,-0.745499c-1.864983,-0.293655 -3.803368,-0.615799 -5.807999,-0.97049c-4.194939,-0.742233 -6.363968,-1.164383 -8.562668,-1.590668c-2.205971,-0.427689 -4.394859,-0.863022 -6.545998,-1.292999c-2.091522,-0.41806 -4.100136,-0.824692 -6.005997,-1.203003c-3.409714,-0.676819 -4.876938,-0.954803 -6.184006,-1.197342c-1.156311,-0.214554 -2.173508,-0.396362 -3.059998,-0.557999c-0.766819,-0.139816 -1.42548,-0.255203 -1.98,-0.377991c-0.856934,-0.189743 -1.177204,-0.290741 -1.428001,-0.41333c-0.216724,-0.105927 -0.393883,-0.24646 -0.529499,-0.417007c-0.14444,-0.181641 -0.261272,-0.417206 -0.394501,-0.686996c-0.33876,-0.686005 -0.551525,-1.118576 -0.810665,-1.601334c-0.287582,-0.535736 -0.61013,-1.114395 -0.961502,-1.732498c-0.37252,-0.655304 -0.768723,-1.339676 -1.186501,-2.047501c-0.871262,-1.476151 -1.329376,-2.228622 -1.793331,-2.989334c-0.467369,-0.766296 -0.940205,-1.5327 -1.416,-2.296509c-0.473545,-0.760193 -0.945782,-1.511993 -1.416,-2.251495c-0.914314,-1.437927 -1.362011,-2.125549 -1.793331,-2.793335c-0.415672,-0.643555 -0.812,-1.261337 -1.186501,-1.850998l-0.349503,-0.559662l-0.321499,-0.527664l-0.290501,-0.493668" id="svg_2" stroke-width="5" stroke="#000000" fill="none"/>
  <path d="m194,90c0,2.6045 0,3.457169 0,4.421501c0,0.814499 0,1.682999 0,2.879166c0,0.617332 0,1.643333 0,2.440666c0,0.925331 0.000397,2.010857 0.022507,2.623337c0.024017,0.664948 0.070816,1.386459 0.157486,2.166c0.09407,0.846054 0.206177,1.7658 0.653336,3.802666c0.251495,1.145546 0.588394,2.364029 0.952499,3.668999c0.388885,1.393814 0.821091,2.87188 1.267502,4.443001c0.472092,1.661507 0.983932,3.410797 1.946671,7.221329c0.516098,2.042755 1.004669,4.173027 1.490997,6.36451c0.495148,2.231186 0.97171,4.488754 1.436996,6.751495c0.462036,2.246948 0.906204,4.4617 1.738678,8.717331c0.392288,2.005386 0.762894,3.926117 1.110001,5.767502c0.332779,1.76532 0.644699,3.460846 0.929993,5.092499c0.274521,1.570053 0.540344,3.083649 0.960007,5.973328c0.200378,1.379791 0.368164,2.728989 0.528,4.051498c0.157455,1.302841 0.303482,2.594559 0.455994,3.880508c0.152802,1.288391 0.296951,2.588211 0.682663,5.234665c0.199005,1.365402 0.431442,2.751465 0.676498,4.153503c0.246918,1.412643 0.508942,2.82605 0.775513,4.234497c0.26445,1.397217 0.534271,2.774231 1.047989,5.445328c0.246109,1.279617 0.480972,2.518494 0.705002,3.7155c0.215927,1.153671 0.420807,2.263519 0.615005,3.328506c0.18576,1.018692 0.361923,1.990326 0.679993,3.789337c0.145889,0.82518 0.281281,1.602448 0.404999,2.334c0.116211,0.687134 0.222107,1.332336 0.315002,1.937988c0.086975,0.567032 0.169342,1.097565 0.279999,2.06134c0.050064,0.436035 0.08403,0.85228 0.127502,1.255493c0.043213,0.400803 0.094376,0.808304 0.172501,1.2285c0.083099,0.447021 0.182526,0.931519 0.53334,2.016006c0.204987,0.633698 0.469589,1.312927 0.752991,2.042999c0.300461,0.773987 0.624283,1.581116 0.951004,2.421005c0.335342,0.862091 0.688019,1.735703 1.296005,3.535995c0.302322,0.895203 0.567215,1.792023 0.819,2.677505c0.24678,0.867905 0.472641,1.718323 0.692993,2.542496c0.212326,0.794159 0.399368,1.559052 0.821335,2.946671c0.191284,0.629044 0.395645,1.212265 0.600006,1.761002c0.195847,0.525894 0.399643,1.030792 0.599991,1.526993c0.199646,0.494476 0.412079,0.990158 0.800003,2.045334c0.206619,0.561996 0.402649,1.154236 0.604507,1.766998c0.207504,0.629898 0.41452,1.275269 0.631485,1.929001c0.21936,0.66095 0.432648,1.328903 0.930679,2.637329c0.246277,0.647034 0.509598,1.273529 0.781494,1.873505c0.260406,0.574631 0.522644,1.110199 0.790497,1.594498c0.243958,0.441086 0.438416,0.86171 0.928009,1.365341c0.174072,0.179062 0.372086,0.277664 0.54599,0.253494c0.187775,-0.026093 0.37822,-0.183105 0.582001,-0.385498c0.248917,-0.247223 0.506592,-0.579086 1.205338,-1.367996c0.423813,-0.4785 0.908554,-0.994064 1.434006,-1.552505c0.559814,-0.594955 1.151077,-1.21669 1.757996,-1.867493c0.622482,-0.667496 1.26088,-1.339783 2.47467,-2.746674c0.597382,-0.692413 1.161011,-1.389069 1.700989,-2.072998c0.52124,-0.660187 1.008987,-1.300766 1.46701,-1.910995c0.429214,-0.571854 0.817429,-1.106918 1.498657,-2.016006c0.278915,-0.372208 0.523376,-0.688492 0.733505,-0.957001c0.177963,-0.227417 0.330215,-0.417053 0.454498,-0.578995c0.104538,-0.136215 0.200302,-0.249161 0.311996,-0.464005c0.051132,-0.098358 0.086487,-0.20842 0.113998,-0.331497c0.031784,-0.142258 0.053955,-0.314178 0.078003,-0.520508c0.0289,-0.247986 0.056366,-0.545578 0.141342,-1.314667c0.053543,-0.484665 0.118835,-1.036133 0.194992,-1.651489c0.08374,-0.676651 0.178589,-1.411194 0.285004,-2.2005c0.11348,-0.841721 0.234772,-1.732788 0.520004,-3.64801c0.151871,-1.019745 0.31749,-2.074631 0.485992,-3.161987c0.172836,-1.115311 0.349457,-2.254349 0.522003,-3.414001c0.17482,-1.175018 0.355148,-2.360886 0.658661,-4.757339c0.151917,-1.199478 0.285233,-2.40213 0.404999,-3.608994c0.120255,-1.211838 0.225388,-2.432281 0.315002,-3.66301c0.090439,-1.241943 0.175766,-2.497971 0.279999,-5.061325c0.053207,-1.308533 0.084839,-2.6306 0.109512,-3.958511c0.024658,-1.326767 0.038284,-2.645645 0.046494,-3.949493c0.008072,-1.281815 0.009995,-2.534668 0.010666,-4.925339c0.000305,-1.125336 0,-2.202667 0,-3.233994c0,-0.987335 0,-1.932663 0,-2.837997c0,-0.86734 0,-1.698669 0,-3.261337c0,-0.735001 0,-1.440002 0,-2.115005c0,-0.644989 0,-1.259995 0,-1.845001c0,-0.554993 -0.000366,-1.079987 0,-2.039993c0.000168,-0.434494 -0.001068,-0.836075 0.009003,-1.201508c0.008987,-0.326599 0.021744,-0.612625 0.063004,-0.850494c0.033524,-0.193237 0.064667,-0.412796 0.261322,-0.447998c0.11203,-0.02005 0.246841,0.110931 0.385498,0.265503c0.174622,0.194656 0.349838,0.45993 0.538513,0.778503c0.215973,0.364685 0.445526,0.783676 0.909332,1.789322c0.263489,0.57132 0.524597,1.199493 0.794998,1.879501c0.289963,0.729218 0.58429,1.514801 0.884995,2.356506c0.31958,0.894547 0.651764,1.84552 1.320007,3.930664c0.361542,1.128143 0.723953,2.320541 1.099487,3.574493c0.393921,1.315353 0.797745,2.695923 1.216507,4.14151c0.437637,1.510742 0.88974,3.089203 1.850662,6.450668c0.509384,1.781937 1.033142,3.616058 1.567505,5.483994c0.538986,1.884064 1.077896,3.766129 1.612503,5.628006c0.523743,1.824112 1.030701,3.592758 1.986664,6.888c0.43399,1.496017 0.840454,2.88559 1.219513,4.172989c0.350342,1.189911 0.675507,2.285583 0.976501,3.291c0.275391,0.919907 0.527039,1.758041 0.970642,3.202667c0.189209,0.61615 0.361267,1.166702 0.514496,1.657501c0.136078,0.435867 0.257202,0.821411 0.361511,1.162506c0.091919,0.300598 0.176086,0.564896 0.29068,1.013336c0.048706,0.190613 0.084808,0.371109 0.127502,0.54599c0.043884,0.17981 0.097504,0.372101 0.172485,0.582001c0.08609,0.241074 0.196167,0.51973 0.533325,1.205338c0.213074,0.433289 0.476654,0.920364 0.770996,1.470001c0.326904,0.610413 0.688812,1.279221 1.077026,2.009995c0.41925,0.789169 0.87149,1.634857 1.818665,3.520004c0.515045,1.02507 1.035675,2.102814 1.576477,3.211502c0.551208,1.12999 1.106567,2.269897 1.675507,3.400497c0.562103,1.11705 1.099304,2.217056 2.248016,4.221329c0.529694,0.92424 1.068329,1.77005 1.595978,2.548508c0.494293,0.729248 0.981384,1.39357 1.452026,1.999496c0.437164,0.562805 0.854553,1.073853 1.618652,1.951996c0.332581,0.382233 0.637207,0.724075 0.928497,1.011002c0.257629,0.253769 0.498077,0.465698 0.739502,0.597c0.210266,0.114349 0.450226,0.214539 0.832001,0.05867c0.222443,-0.09082 0.420929,-0.317062 0.649506,-0.578995c0.275543,-0.315765 0.577393,-0.714478 0.946503,-1.173004c0.430206,-0.534454 0.920105,-1.159241 2.237335,-2.581329c0.790161,-0.853058 1.709106,-1.762878 2.704498,-2.773499c1.08075,-1.09729 2.242157,-2.280365 3.451477,-3.574509c1.284302,-1.374405 2.651581,-2.822281 5.344025,-6.151993c1.437927,-1.778259 2.842651,-3.683197 4.231476,-5.668503c1.410309,-2.016022 2.770599,-4.08815 4.060516,-6.199509c1.277679,-2.09137 2.535675,-4.152969 4.541321,-8.29866c0.942444,-1.948029 1.718689,-3.866928 2.391022,-5.720993c0.641174,-1.768173 1.170898,-3.48172 1.616974,-5.127014c0.423645,-1.562561 0.782013,-3.055801 1.325348,-5.818665c0.247803,-1.260101 0.451965,-2.458557 0.623993,-3.607498c0.166382,-1.111191 0.302032,-2.204041 0.40802,-3.292496c0.106781,-1.096619 0.199432,-2.219025 0.301331,-4.600006c0.055054,-1.286896 0.085144,-2.658707 0.073486,-4.127991c-0.012543,-1.581543 -0.074738,-3.289948 -0.205505,-5.136002c-0.141907,-2.00296 -0.321167,-4.179596 -1.034668,-9.069336c-0.401611,-2.752319 -0.928802,-5.656982 -1.496979,-8.6745c-0.580933,-3.085266 -1.204834,-6.181015 -1.83902,-9.241501c-0.61734,-2.979141 -1.2258,-5.823425 -2.330658,-10.917328c-0.469513,-2.164658 -0.886719,-4.074951 -1.256989,-5.757004c-0.325897,-1.480576 -0.615845,-2.785156 -0.878998,-3.939003c-0.235077,-1.030777 -0.448547,-1.9645 -0.864014,-3.637329c-0.196289,-0.79039 -0.396393,-1.556618 -0.59549,-2.296501c-0.19162,-0.712105 -0.381287,-1.391693 -0.568512,-2.0355c-0.176575,-0.607162 -0.3414,-1.175018 -0.669342,-2.167999c-0.141022,-0.427002 -0.277985,-0.806084 -0.404999,-1.143005c-0.11322,-0.300346 -0.219788,-0.565422 -0.315002,-0.800995c-0.084778,-0.209755 -0.168243,-0.394417 -0.279999,-0.722672c-0.04895,-0.143806 -0.083405,-0.279808 -0.113983,-0.404999c-0.028046,-0.11483 -0.050262,-0.220673 -0.078003,-0.315002c-0.025177,-0.085663 -0.043518,-0.172005 -0.141327,-0.279999c-0.048523,-0.053558 -0.123444,-0.090546 -0.199524,-0.149994c-0.093872,-0.073334 -0.202332,-0.178596 -0.316498,-0.330002c-0.144012,-0.191002 -0.309967,-0.443512 -0.650665,-1.186668c-0.22287,-0.486122 -0.437347,-1.055832 -0.66748,-1.678497c-0.243439,-0.658615 -0.478333,-1.342339 -0.712524,-2.029503l-0.224152,-0.675163l-0.209167,-0.646172" id="svg_3" stroke-width="5" stroke="#000000" fill="none"/>
  <path d="m349,248c-0.221497,-3.749832 -0.283875,-4.392151 -0.357178,-5.082169c-0.077271,-0.727325 -0.161926,-1.480545 -0.253479,-2.248505c-0.092072,-0.772369 -0.180664,-1.538742 -0.489349,-3.6875c-0.096863,-0.674286 -0.204559,-1.365051 -0.299988,-2.104492c-0.105072,-0.814194 -0.206665,-1.734055 -0.300018,-2.788498c-0.107666,-1.216187 -0.307098,-4.255142 -0.399475,-6.130173c-0.104553,-2.122284 -0.195953,-4.491074 -0.268524,-7.104004c-0.079254,-2.854401 -0.13501,-5.949219 -0.160492,-9.281998c-0.027283,-3.568588 0.016357,-11.406189 0.09317,-15.662155c0.080017,-4.433411 0.200653,-8.990677 0.354004,-13.6185c0.153961,-4.646545 0.33786,-9.257874 0.552002,-13.780502c0.20752,-4.382706 0.680084,-12.51265 0.950989,-16.164841c0.250305,-3.374466 0.52298,-6.488403 0.825012,-9.360001c0.279266,-2.655045 0.583069,-5.10907 0.914978,-7.37999c0.309235,-2.115707 0.990906,-5.942932 1.35968,-7.690338c0.349335,-1.655205 0.718658,-3.21196 1.104004,-4.671005c0.362762,-1.373528 0.73819,-2.654205 1.122009,-3.842995c0.358276,-1.109741 1.075165,-3.073433 1.431641,-3.930168c0.329712,-0.792397 0.663727,-1.517494 1.017029,-2.1735c0.332947,-0.618179 0.687805,-1.18705 1.070984,-1.705498c0.374695,-0.507004 1.224152,-1.435928 1.697998,-1.871834c0.486115,-0.447189 1.01416,-0.876335 1.575012,-1.296005c0.579102,-0.433327 1.196472,-0.856003 1.845001,-1.278c0.671417,-0.436882 2.113434,-1.316643 2.878143,-1.767998c0.780579,-0.460709 1.571045,-0.916328 2.359528,-1.362c0.771881,-0.436279 1.519897,-0.850655 2.23349,-1.236c0.663818,-0.358475 1.805573,-0.958427 2.272675,-1.172333c0.391235,-0.179153 0.732574,-0.316475 1.036499,-0.333c0.272217,-0.014801 0.543793,0.080284 0.784485,0.261002c0.28537,0.214249 0.889252,0.958702 1.25766,1.457497c0.425873,0.576614 0.885254,1.242477 1.372498,1.9935c0.531738,0.819633 1.082306,1.718803 1.642517,2.695503c0.593719,1.03508 1.78772,3.311562 2.376831,4.543999c0.605896,1.267509 1.189423,2.572067 1.757996,3.892502c0.566071,1.314613 1.103027,2.618233 1.614014,3.892494c0.491547,1.225822 1.365631,3.486137 1.742645,4.495003c0.348022,0.931259 0.663757,1.802826 0.942017,2.6325c0.266785,0.795464 0.508759,1.577904 0.725983,2.362503c0.220245,0.795441 0.623718,2.496292 0.817688,3.425659c0.203674,0.975937 0.396515,1.991425 0.578979,3.0345c0.184937,1.057266 0.355072,2.120499 0.507019,3.178497c0.149292,1.039383 0.387512,3.024902 0.471497,3.951172c0.079712,0.879135 0.136078,1.717148 0.181488,2.516998c0.043457,0.765503 0.074951,1.501389 0.109497,2.210999c0.033478,0.687714 0.113678,2.013428 0.17334,2.658508c0.059082,0.638962 0.132843,1.273346 0.214508,1.906494c0.082001,0.635864 0.173981,1.276093 0.268494,1.9245c0.096161,0.659607 0.29657,2.023346 0.39566,2.734009c0.102264,0.733337 0.204498,1.492981 0.310516,2.281494c0.110321,0.82048 0.22464,1.676086 0.346497,2.569504c0.127472,0.934586 0.408051,2.938705 0.564331,4.011993c0.162323,1.114716 0.333801,2.261292 0.514496,3.430496c0.182953,1.183792 0.372162,2.372421 0.568512,3.556503c0.194336,1.171921 0.592987,3.439972 0.795166,4.519836c0.195251,1.042786 0.392212,2.048492 0.578979,3.020996c0.180542,0.94017 0.354034,1.849854 0.507019,2.733002c0.148193,0.85556 0.38855,2.498184 0.471497,3.289337c0.080872,0.771606 0.136658,1.528442 0.181488,2.270996c0.044098,0.730118 0.075348,1.450699 0.109497,2.16301c0.033844,0.70636 0.114594,2.109314 0.173187,2.809158c0.058746,0.701508 0.130524,1.404419 0.203979,2.110504c0.073883,0.710236 0.151672,1.425095 0.222015,2.1465c0.070984,0.727936 0.190735,2.209229 0.231171,2.964493c0.040955,0.764755 0.067413,1.539932 0.08548,2.325012c0.01828,0.794937 0.026886,1.599976 0.031525,2.414993c0.0047,0.824997 0.004486,2.505005 0.004486,3.359329c0,0.860336 0,1.722672 0,2.583008c0,0.854324 0,1.698669 0,2.528992c0,0.812332 0,2.367004 0,3.102005c0,0.705002 0,1.380005 0,2.024994c0,0.615005 0,1.200012 0,1.755005c0,0.524994 0,1.485001 0,1.920502c0,0.408493 0,0.792999 0,1.156494c0,0.345505 0,0.67601 0,0.994507c0,0.309494 0,0.913498 0,1.213165c0,0.297668 0,0.591339 0,0.878998c0,0.279663 0,0.549332 0,0.807007c0,0.243668 0,0.681 0,0.871826c0,0.175842 0,0.341675 0,0.502502c0,0.160828 0,0.32666 0,0.502502c0,0.190826 0,0.637497 0,0.901993c0,0.291504 0,0.60701 0,0.943497c0,0.354507 0,0.724014 0,1.105515c0,0.390488 0,1.186493 0,1.585999c0,0.3965 0,0.786987 0,1.168488c0,0.369507 0,0.724014 0,1.060501c0,0.315506 0,0.871506 0,1.107178c0,0.209656 0,0.397324 0,0.567001c0,0.155655 0,0.301331 0,0.440994c0,0.137665 0,0.423004 0,0.577835c0,0.163834 0,0.335663 0,0.514496c0,0.18483 0,0.374664 0,0.568497c0,0.196838 0,0.595505 0,0.796005c0,0.203506 0,0.412994 0,0.6315c0,0.230499 0,0.475998 0,0.739502c0,0.2845 0,0.928497 0,1.292328c0,0.386841 0,0.789673 0,1.201508c0,0.413834 0,0.822662 0,1.219498c0,0.377838 -0.00061,1.048492 0.000153,1.329498c0.000671,0.246994 0.001892,0.466095 0.010529,0.662994c0.007935,0.181107 0.02533,0.352005 0.046478,0.518997l0.028168,0.169006" id="svg_4" stroke-width="5" stroke="#000000" fill="none"/>
  <path d="m395,178c-3.600006,0 -4.5,0 -5.100006,0c-1.200653,0 -2.14267,0 -2.843994,0c-0.797333,0 -1.722656,0 -2.813324,0c-0.625336,0 -1.314667,0 -2.076019,0c-0.841309,0 -1.77066,0 -2.79599,0c-2.370667,0 -3.726654,0 -5.17868,0c-1.523987,0 -3.095978,0 -4.691986,0c-1.596008,0 -3.167999,0 -4.691986,0c-2.808014,0 -4.050018,0 -5.184021,0c-1.037994,0 -1.992004,0 -2.873993,0l-0.821991,0l-0.774017,0l-0.738007,0" id="svg_5" stroke-width="5" stroke="#000000" fill="none"/>
  <path d="m519,95c-1.221863,-0.878502 -1.972229,-1.017418 -3.014343,-0.995499c-0.807434,0.016983 -1.395752,0.040451 -2.591003,0.28083c-0.642029,0.12912 -1.335815,0.337585 -2.135986,0.515999c-1.445068,0.322197 -2.041473,0.408562 -2.726837,0.534668c-0.806671,0.148422 -1.761658,0.327232 -2.890503,0.552002c-1.332306,0.265282 -2.894958,0.581161 -6.807983,1.445335c-2.399353,0.529892 -5.060669,1.142372 -7.942505,1.810501c-3.058228,0.709023 -6.245483,1.458199 -9.517517,2.233498c-3.313019,0.785011 -6.621399,1.571541 -13.039978,3.122665c-3.032196,0.732765 -5.932831,1.440643 -8.71051,2.128502c-2.66629,0.660278 -5.228241,1.304146 -7.693512,1.939499c-2.381714,0.613815 -4.689301,1.208664 -9.095978,2.431999c-2.127136,0.590508 -4.198059,1.191833 -6.211517,1.795502c-1.958496,0.587189 -3.853363,1.176277 -5.680481,1.768501c-1.763824,0.571709 -3.461578,1.124062 -6.608002,2.269333c-1.464722,0.53315 -2.847076,1.070244 -4.144501,1.6185c-1.23175,0.5205 -2.386078,1.050064 -3.451508,1.609497c-1.010712,0.530701 -1.982727,1.036133 -3.570679,2.272003c-0.742096,0.57756 -1.387146,1.220924 -1.953003,1.889999c-0.551514,0.652122 -1.026978,1.347443 -1.431,2.07c-0.40155,0.71817 -0.768433,1.462402 -1.282654,3.039993c-0.26181,0.803238 -0.457916,1.647842 -0.62851,2.526001c-0.17807,0.916626 -0.318512,1.889511 -0.439484,2.921997c-0.128662,1.09819 -0.23999,2.273758 -0.432007,4.885345c-0.106476,1.448349 -0.202332,2.990448 -0.295502,4.6185c-0.097687,1.706619 -0.187866,3.485474 -0.268494,5.329498c-0.08316,1.901642 -0.166077,3.854233 -0.269348,7.88533c-0.052887,2.064484 -0.085052,4.157272 -0.10498,6.276001c-0.020142,2.142624 -0.024963,4.307343 -0.015015,6.492004c0.01004,2.202698 0.024872,4.421616 0.119995,8.898666c0.047882,2.254333 0.11441,4.513702 0.208496,6.772491c0.093903,2.254593 0.214294,4.499374 0.379517,6.727509c0.16391,2.210297 0.323212,4.401764 0.911987,8.666656c0.287598,2.083282 0.654785,4.113052 1.057495,6.084c0.391174,1.914444 0.822479,3.753433 1.282501,5.508011c0.439087,1.674683 0.868225,3.2603 1.826691,6.074661c0.425568,1.249619 0.870972,2.38681 1.318481,3.432007c0.421295,0.983963 0.860901,1.905426 1.309509,2.783997c0.440552,0.862762 0.907013,1.709869 1.872009,3.450668c0.509308,0.918777 1.035034,1.870041 1.58548,2.839493c0.560181,0.986588 1.135437,1.978027 1.738525,2.956497c0.600677,0.974564 1.185944,1.948837 2.509308,3.70401c0.635468,0.842804 1.316681,1.626602 2.035522,2.365494c0.725311,0.745544 1.515289,1.461044 2.3685,2.158508c0.893494,0.730408 1.864746,1.472168 4.095978,2.975998c1.23703,0.83374 2.573608,1.67453 3.982513,2.526001c1.450958,0.876892 2.947113,1.73848 4.477509,2.561996c1.52478,0.820496 3.028046,1.641251 6.039978,2.912003c1.411896,0.595688 2.800568,1.072617 4.152008,1.466995c1.305267,0.380905 2.594147,0.678207 3.864014,0.908997c1.248535,0.226929 2.492737,0.411255 4.983978,0.623993c1.254608,0.107147 2.527649,0.170715 3.822021,0.192017c1.321808,0.021759 2.679138,-0.00528 4.073975,-0.096008c1.443512,-0.093903 2.946564,-0.212738 6.104004,-0.762665c1.689362,-0.294235 3.427124,-0.696426 5.210999,-1.134003c1.82431,-0.447495 3.665619,-0.943497 5.516998,-1.457993c1.852631,-0.514847 3.686615,-1.050262 7.272003,-2.074677c1.723846,-0.492538 3.395935,-0.961548 5.011505,-1.41449c1.556458,-0.436371 3.051727,-0.853775 4.480499,-1.261505c1.362213,-0.388733 2.658295,-0.74913 5.007996,-1.490662c1.063263,-0.335541 2.044373,-0.672501 2.949005,-0.996002c0.833954,-0.298218 1.592682,-0.587341 2.28302,-0.852005l0.622314,-0.242661l0.556335,-0.218674" id="svg_6" stroke-width="5" stroke="#000000" fill="none"/>
  <path d="m484,227c12.333344,-2.666672 16.377747,-3.318954 21.015991,-4.037338c5.080322,-0.78685 10.457947,-1.599548 15.984009,-2.42099c5.524597,-0.821228 10.901123,-1.611374 15.984009,-2.331009c8.680115,-1.228928 12.021729,-1.675095 14.697327,-1.977325c2.072815,-0.234146 3.624207,-0.396759 4.714478,-0.337509c0.710815,0.038635 1.199829,0.22229 1.249512,0.517502c0.12738,0.756577 -0.306335,1.23822 -0.503967,1.781342c-0.217651,0.598053 -0.464661,1.238495 -0.745544,1.9095c-0.293518,0.701172 -0.609192,1.42012 -0.970459,2.134491c-0.729736,1.443008 -1.159363,2.122757 -1.589355,2.783997c-0.419922,0.645737 -0.854675,1.252014 -1.273499,1.831512l-0.403809,0.544495l-0.381836,0.5065l-0.352844,0.4655" id="svg_7" stroke-width="5" stroke="#000000" fill="none"/>
  <path d="m485,226c5.145325,-0.001328 5.962799,0.017624 6.681335,-0.085327c1.025269,-0.146896 1.649078,-0.367874 2.453339,-0.56134c1.032684,-0.248413 2.364899,-0.522247 3.157318,-0.674835c0.863556,-0.166275 1.782257,-0.334412 2.736023,-0.514496c0.972229,-0.183563 1.945038,-0.369522 2.89798,-0.568497c0.919037,-0.191895 2.577148,-0.584686 3.280518,-0.795166c0.628448,-0.188065 1.181366,-0.385208 1.669495,-0.57901c0.438721,-0.174179 1.158539,-0.575592 2.123993,-0.888c0.872955,-0.282486 1.727814,-0.322662 2.666687,-0.333328c0.812439,-0.009232 1.818665,0 2.544006,0c0.991333,0 1.717285,0 2.421326,0c0.992004,0 2.367981,0 3.224792,0c0.957825,0 1.997681,0 3.100525,0c1.146851,0 2.318665,0 3.496521,0c1.164795,0 3.379456,0 4.394836,0c0.947327,0 1.828613,0 2.645996,0c0.75531,0 1.450623,0 2.087952,0c0.58136,0 1.584045,0 2.009705,0c0.379639,0 0.717346,0 1.016968,0c0.501343,0 1.523315,-0.094284 2.274658,0.085327c0.967285,0.231232 1.510681,0.7453 2.166687,1.514679c0.621826,0.729309 1.252625,1.092072 1.888,1.789322c0.569092,0.624512 1.022949,1.319427 1.059998,2.128006c0.044983,0.981888 0.308594,1.960831 0.501343,2.524338c0.379761,1.110184 0.461914,1.910141 0.489319,2.733002c0.035278,1.058121 0.010681,1.763657 0.010681,2.56366c0,1.025665 0.171936,2.037186 -0.285339,2.861664c-0.383789,0.692062 -1.126831,1.188065 -1.814636,1.900177c-0.509155,0.527145 -1.035828,1.426254 -1.5,2.038498c-0.620483,0.818375 -1.618408,0.975952 -2.042847,1.565826c-0.568726,0.790421 -0.805847,1.725082 -1.329163,2.266174c-0.783264,0.809875 -1.278687,1.279999 -1.777344,1.778656c-0.917358,0.917343 -1.43634,1.436325 -2.048035,2.048004c-0.623962,0.623993 -1.169739,1.176895 -1.970642,1.96933c-0.48053,0.475479 -0.9198,1.024719 -1.898682,1.733337c-0.749573,0.542603 -1.507996,0.901016 -1.897339,1.685333c-0.442627,0.891663 -0.557983,1.734222 -1.145813,2.467346c-0.441711,0.550873 -1.268433,1.326019 -1.769348,1.826477c-0.724487,0.723846 -1.219421,1.204285 -2.020813,1.854187c-0.545715,0.442535 -1.176636,0.916534 -1.823975,1.415985c-0.624634,0.481903 -1.620178,1.287231 -2.352051,1.901337c-0.819702,0.687805 -1.375366,1.118103 -2,1.600006c-0.647339,0.499451 -1.285767,0.964417 -2.274658,1.783997c-0.599548,0.496887 -1.018066,0.88916 -1.882629,1.631989c-0.783447,0.673126 -1.229919,1.044128 -1.693359,1.434662c-0.946472,0.797607 -1.41095,1.18689 -1.853333,1.562683c-1.115234,0.947327 -1.843109,1.624817 -2.583984,2.216003c-0.7854,0.626709 -1.266632,0.96759 -2.03067,1.410156c-1.015289,0.588074 -1.74353,0.762726 -2.671997,1.209839c-0.682983,0.328918 -1.445923,0.785645 -1.854187,1.020844c-0.826813,0.476318 -1.97876,1.146515 -2.625824,1.511169c-0.832001,0.468872 -1.367004,0.753784 -2.496338,1.510834c-0.67926,0.455353 -1.028992,0.718475 -1.77832,1.242493l-0.781342,0.531982" id="svg_9" stroke-width="5" stroke="#000000" fill="none"/>
 </g>
</svg>